<?xml version="1.0" encoding="utf-8" ?><svg xmlns="http://www.w3.org/2000/svg" xmlns:xlink="http://www.w3.org/1999/xlink" width="658" height="376" viewBox="0 0 658 376"><path fill="#7C500D" transform="scale(0.489583 0.489583)" d="M364.632 291.651C369.412 291.152 379.66 291.374 384.775 291.371L421.037 291.365L461.431 291.388C479.133 291.405 499.338 289.131 511.285 304.569C520.535 316.523 518.867 333.567 518.842 347.781L518.88 381.372C518.909 398.744 519.201 416.203 518.772 433.562C518.236 455.265 507.396 466.128 486.399 468.923C480.245 469.378 469.919 469.115 463.529 469.142L416.374 469.176C400.074 469.16 383.74 469.389 367.451 469.061C359.491 468.901 353.076 467.27 346.428 462.879C328.966 451.346 331.338 429.579 331.328 411.314L331.334 375.402C331.345 360.559 331.224 345.629 331.446 330.785C331.789 307.824 341.8 295.494 364.632 291.651ZM373.27 429.614C398.835 429.31 424.517 429.983 449.997 429.676C462.815 428.938 475.328 421.67 476.604 408.636C479.04 383.76 477.383 355.543 477.886 330.577C455.575 329.589 432.692 330.601 410.329 330.238C406.881 330.183 402.808 330.155 399.379 330.393C369.359 335.889 372.9 360.889 372.996 384.528L373.27 429.614Z"/><path fill="#7C500D" transform="scale(0.489583 0.489583)" d="M295.356 226.027C297.402 225.701 303.934 225.678 306.358 225.655L399.929 225.649C406.112 225.638 412.873 225.352 418.955 225.607C435.888 226.315 454.745 222.049 467.869 235.502C479.395 247.317 478.445 261.951 478.383 276.917C435.598 277.6 392.074 276.01 349.277 277.333C331.847 277.872 322.164 289.749 318.162 306.047C316.894 313.429 317.568 337.349 317.528 346.413C317.4 375.97 317.861 405.629 317.555 435.204C303.6 435.338 288.676 436.459 276.676 427.886C260.21 416.121 262.504 394.841 262.503 376.943L262.533 333.626L262.554 286.681C262.586 258.061 258.811 231.02 295.356 226.027Z"/><path fill="#7C500D" transform="scale(0.489583 0.489583)" d="M533 328.554C533.714 328.514 534.428 328.487 535.143 328.471C565.15 327.826 587.025 329.89 587.442 367.136L587.562 460.145C587.568 475.802 588.232 492.517 586.596 507.968C585.628 517.105 573.749 529.132 564.388 530.328C548.569 532.349 531.938 531.619 515.936 531.625L425.578 531.619L410.451 531.732C375.047 531.733 371.466 512.447 371.486 482.575L479.461 482.59C495.723 482.656 513.263 485.062 525.486 472.309C534.148 463.271 532.885 452.579 533.12 440.98C533.298 432.197 533.137 423.386 533.122 414.633L533 328.554Z"/><path fill="#7C500D" transform="scale(0.489583 0.489583)" d="M1011.52 337.584C1044.06 334.195 1073.21 357.762 1076.73 390.296C1080.24 422.83 1056.79 452.08 1024.28 455.719C991.588 459.378 962.15 435.767 958.618 403.056C955.086 370.345 978.804 340.992 1011.52 337.584ZM1024.04 430.444C1042.72 427.001 1055.06 409.036 1051.57 390.354C1048.08 371.673 1030.09 359.375 1011.42 362.912C992.822 366.437 980.581 384.355 984.057 402.97C987.534 421.585 1005.42 433.874 1024.04 430.444Z"/><path fill="#7C500D" transform="scale(0.489583 0.489583)" d="M825.482 341.005C828.641 340.974 832.078 341.099 835.262 341.148C839.98 348.026 846.807 360.671 851.211 368.202L875.51 409.04C888.885 386.583 902.073 364.016 915.072 341.34C923.042 341.123 931.015 341.115 938.985 341.316L939.242 452.331L914.465 452.355C914.296 439.034 914.198 425.712 914.171 412.39C913.831 403.285 914.591 394.224 914.097 384.716C902.848 402.67 892.367 422.215 881.304 440.561L868.386 440.642L836.525 386.018L836.807 452.3C828.526 452.406 820.058 452.328 811.761 452.34L811.757 341.334C816.218 341.069 820.992 341.079 825.482 341.005Z"/><path fill="#7C500D" transform="scale(0.489583 0.489583)" d="M664.486 341.353C673.264 341.189 682.043 341.184 690.821 341.337L690.884 430.994C705.743 429.933 731.736 430.778 747.284 430.781C747.443 437.718 747.336 445.097 747.357 452.072C744.041 452.584 725.911 452.304 721.617 452.301L664.574 452.241C665.088 439.946 664.684 425.127 664.662 412.683L664.486 341.353Z"/><path fill="#7C500D" transform="scale(0.489583 0.489583)" d="M761.273 341.359C769.77 341.152 778.776 341.299 787.316 341.313C788.013 377.633 787.483 415.8 787.478 452.225L761.265 452.253L761.273 341.359Z"/></svg>