<?xml version="1.0" encoding="utf-8" ?><svg xmlns="http://www.w3.org/2000/svg" xmlns:xlink="http://www.w3.org/1999/xlink" width="664" height="376" viewBox="0 0 664 376"><path fill="#7B500D" d="M292.153 94.1022C296.965 93.8814 302.979 94.0333 307.867 94.0301L336.74 94.019L354.204 94.0211C362.118 94.0246 369.701 93.3284 376.303 98.5145C385.296 105.579 383.966 116.076 383.969 126.216L383.97 148.968L383.967 168.858C383.972 173.257 384.176 177.616 383.618 181.987C382.353 191.88 374.854 198.069 365.151 199.008C349.277 199.331 332.506 199.048 316.563 199.07L300.421 199.085C293.037 199.087 287.19 199.87 280.899 195.153C271.069 187.782 272.267 177.467 272.262 166.716L272.253 144.321L272.256 124.601C272.26 116.356 271.471 108.663 276.907 101.83C281.151 96.4961 285.716 94.9851 292.153 94.1022ZM297.196 175.649C313.031 175.794 328.867 175.792 344.702 175.644C352.154 174.927 358.535 168.794 359.059 161.679C360.125 147.217 359.113 131.321 359.52 116.85C344.665 116.519 327.152 116.476 312.302 116.803C307.171 117.935 303.17 119.698 300.182 124.287C298.836 126.376 297.939 128.721 297.548 131.175C296.974 134.709 297.176 142.765 297.179 146.6L297.196 175.649Z"/><path fill="#7B500D" d="M250.242 55.2212C253.647 54.9514 258.315 55.0986 261.85 55.0994L281.694 55.0971C299.946 55.0945 318.214 55.083 336.466 55.122C343.659 55.1374 348.913 56.1419 354.154 61.65C360.504 68.324 359.926 77.1241 359.766 85.4836C357.714 85.1862 352.204 85.3318 349.934 85.3319L330.974 85.3276L300.807 85.3249C285.148 85.3254 269.724 82.3172 264.547 101.21C264.121 102.926 263.91 104.049 263.88 105.831C263.472 130.112 264.364 154.601 263.777 178.864C255.397 178.968 247.276 179.686 239.933 174.651C229.674 167.618 231.371 155.862 231.373 144.881L231.392 118.134L231.381 89.9086C231.377 73.4515 229.195 58.6529 250.242 55.2212Z"/><path fill="#7B500D" d="M392.534 116.108C404.563 115.952 416.361 114.274 422.731 126.89C425.068 131.519 424.868 134.833 424.881 139.781L424.881 196.152C424.882 204.634 425.222 213.503 424.423 221.953C424.057 226.466 416.65 234.76 412.194 235.452C402.837 236.904 390.404 236.319 381.021 236.306L328.92 236.308L322.446 236.331C314.564 236.371 308.558 236.995 302.449 230.864C295.409 223.799 296.294 215.957 296.249 206.814C296.945 206.849 297.641 206.87 298.338 206.877L351.546 206.925C359.774 206.928 368.831 207.329 376.948 206.574C383.123 206.141 391.306 199.709 392.051 193.343C392.941 185.725 392.572 176.21 392.573 168.457L392.534 116.108Z"/><path fill="#7B500D" d="M491.826 286.186C496.507 286.283 501.417 286.221 506.117 286.233C505.958 306.214 505.934 326.196 506.045 346.177C503.428 346.462 496.045 346.288 493.307 346.155C490.835 342.897 487.221 338.921 484.515 335.724L471.537 320.176C468.912 317.064 465.997 313.888 463.649 310.59C463.995 321.916 463.695 334.852 463.692 346.3C459.637 346.084 453.04 346.165 449.037 346.454L449.082 286.22C453.081 286.197 456.977 286.158 460.977 286.322C462.39 287.516 463.148 288.324 464.343 289.729C473.564 300.56 482.526 311.601 491.871 322.325C491.427 311.018 492.075 297.826 491.826 286.186Z"/><path fill="#7B500D" d="M352.503 286.205C356.416 286.199 360.328 286.221 364.241 286.269C366.531 288.239 369.678 292.294 371.695 294.73L383.299 308.765C386.047 312.085 392.196 318.872 394.325 322.047C393.87 311.061 394.242 297.399 394.23 286.203L409.134 286.234C408.76 301.135 409.115 329.856 408.963 345.767C408.819 345.937 408.676 346.107 408.532 346.276C405.083 346.06 399.889 347.136 396.726 345.904C394.618 345.082 368.502 313.622 366.823 310.312C367.05 322.206 366.915 334.543 366.926 346.472C363.077 346.06 356.577 346.233 352.707 346.523L352.729 306.708C352.731 301.519 353.033 290.891 352.503 286.205Z"/><path fill="#7B500D" d="M270.612 286.247L285.609 286.199C285.154 290.042 285.36 299.085 285.36 303.212L285.379 334.455C285.381 336.563 285.597 344.958 285.083 346.363C281.25 346.096 274.471 346.119 270.685 346.489C270.382 338.47 270.844 330.106 270.526 321.878C261.933 321.996 253.009 321.974 244.409 321.919C244.321 329.38 244.093 338.904 244.434 346.272C240.032 346.139 234.254 346.087 229.894 346.525L229.917 307.466C229.921 300.988 230.192 292.496 229.763 286.235L244.423 286.241C244.243 293.856 244.487 301.826 244.219 309.298C252.999 309.583 261.786 309.551 270.564 309.203C270.792 302.263 270.842 293.151 270.612 286.247Z"/><path fill="#7B500D" d="M189.254 285.375C198.736 284.08 208.931 286.9 216.199 293.063C217.298 293.995 218.158 294.414 218.305 295.917C217.269 297.454 211.772 302.432 209.99 304.302C202.282 298.768 196.2 295.745 186.234 298.775C182.103 300.031 178.263 304.02 176.504 307.918C174.214 312.892 174.035 318.581 176.008 323.689C180.88 336.141 193.469 336.976 204.444 332.564C204.526 327.548 204.764 319.887 204.328 315.074L209.851 315.112C212.533 315.141 215.215 315.11 217.896 315.017C217.924 317.921 218.37 339.313 217.138 340.214C196.974 354.973 162.543 347.914 159.958 319.522C159.144 311.087 161.723 302.676 167.123 296.144C172.491 289.778 181.042 286.059 189.254 285.375Z"/><path fill="#7B500D" d="M545.189 285.371C556.865 283.787 566.506 287.703 574.83 295.649C573.746 297.151 567.289 302.863 565.642 304.148C563.465 302.753 560.882 300.401 558.704 299.265C554.936 297.299 546.514 297.313 542.599 298.609C527.435 303.627 526.333 326.64 540.798 333.234C547.861 336.454 553.646 335.219 560.532 332.666C560.499 326.807 560.432 320.948 560.332 315.09L564.06 315.117C567.322 315.137 570.584 315.105 573.845 315.021C573.725 322.006 574.251 333.711 573.603 340.121C561.768 349.972 538.306 350.351 526.582 340.242C520.704 335.174 516.524 327.207 515.85 319.509C515.101 311.115 517.69 302.764 523.057 296.265C528.962 289.255 536.249 286.157 545.189 285.371Z"/><path fill="#7B500D" d="M292.828 286.198C310.03 286.462 327.978 286.247 345.23 286.2C344.918 289.848 345.048 294.256 345.075 297.971C339.495 298.312 331.605 298.148 325.821 298.195C326.3 307.119 325.967 318.968 325.965 328.109L326.018 346.384C322.052 346.053 315.879 346.163 311.94 346.521C311.86 330.811 311.595 313.803 311.983 298.179C306.444 298.082 298.228 297.863 292.897 298.307C293.088 294.589 292.974 289.888 292.828 286.198Z"/><path fill="#7B500D" d="M82.0167 286.223L96.7283 286.222C96.3958 291.504 96.5786 298.559 96.5747 303.975L96.6406 334.598C99.5202 334.881 104.742 334.696 107.765 334.692C114.349 334.737 120.934 334.686 127.517 334.539C127.343 338.113 127.414 342.764 127.483 346.315C122.161 345.879 111.313 346.245 105.657 346.245C99.3814 346.245 87.9142 345.885 81.9944 346.483C82.3646 326.917 82.0895 305.852 82.0167 286.223Z"/><path fill="#7B500D" d="M135.372 286.233C140.17 286.244 144.967 286.225 149.765 286.174C149.443 293.691 149.638 302.731 149.632 310.378C149.58 322.329 149.613 334.279 149.729 346.229C145.258 346.224 139.886 346.058 135.512 346.455C135.33 332.831 135.634 319.031 135.506 305.393C135.447 299.111 135.666 292.483 135.372 286.233Z"/><path fill="#7B500D" d="M421.929 286.2L436.128 286.226C435.945 293.125 436.609 344.586 435.634 346.426C431.945 345.997 425.733 346.259 422.031 346.514L422.041 308.378C422.044 301.155 422.197 293.374 421.929 286.2Z"/></svg>