<svg width="20" height="20" viewBox="0 0 20 20" fill="none" xmlns="http://www.w3.org/2000/svg">
<path d="M9.16675 14.166C9.16675 14.6263 9.53984 14.9993 10.0001 14.9993C10.4603 14.9993 10.8334 14.6263 10.8334 14.166C10.8334 13.7058 10.4603 13.3327 10.0001 13.3327C9.53984 13.3327 9.16675 13.7058 9.16675 14.166ZM10.0001 1.66602C5.40008 1.66602 1.66675 5.39935 1.66675 9.99935C1.66675 14.5993 5.40008 18.3327 10.0001 18.3327C14.6001 18.3327 18.3334 14.5993 18.3334 9.99935C18.3334 5.39935 14.6001 1.66602 10.0001 1.66602ZM10.0001 16.666C6.32508 16.666 3.33341 13.6743 3.33341 9.99935C3.33341 6.32435 6.32508 3.33268 10.0001 3.33268C13.6751 3.33268 16.6667 6.32435 16.6667 9.99935C16.6667 13.6743 13.6751 16.666 10.0001 16.666ZM10.0001 4.99935C8.15841 4.99935 6.66675 6.49102 6.66675 8.33268H8.33341C8.33341 7.41602 9.08341 6.66602 10.0001 6.66602C10.9167 6.66602 11.6667 7.41602 11.6667 8.33268C11.6667 9.99935 9.16675 9.79102 9.16675 12.4993H10.8334C10.8334 10.6243 13.3334 10.416 13.3334 8.33268C13.3334 6.49102 11.8417 4.99935 10.0001 4.99935Z" fill="currentColor"/>
</svg>
