<svg width="19" height="19" viewBox="0 0 19 19" fill="none" xmlns="http://www.w3.org/2000/svg">
<path d="M9.4375 0C4.21875 0 0 4.21875 0 9.4375C0 14.6562 4.21875 18.9062 9.4375 18.9062C14.6562 18.9062 18.9062 14.6562 18.9062 9.4375C18.9062 4.21875 14.6562 0 9.4375 0ZM9.4375 17.5C5 17.5 1.40625 13.875 1.40625 9.4375C1.40625 5 5 1.40625 9.4375 1.40625C13.875 1.40625 17.5 5.03125 17.5 9.46875C17.5 13.875 13.875 17.5 9.4375 17.5Z" fill="currentColor"/>
<path d="M12.3125 6.53125C12.0313 6.25 11.5938 6.25 11.3125 6.53125L9.4375 8.4375L7.53125 6.53125C7.25 6.25 6.8125 6.25 6.53125 6.53125C6.25 6.8125 6.25 7.25 6.53125 7.53125L8.4375 9.4375L6.53125 11.3437C6.25 11.625 6.25 12.0625 6.53125 12.3437C6.65625 12.4687 6.84375 12.5625 7.03125 12.5625C7.21875 12.5625 7.40625 12.5 7.53125 12.3437L9.4375 10.4375L11.3437 12.3437C11.4687 12.4687 11.6563 12.5625 11.8438 12.5625C12.0313 12.5625 12.2188 12.5 12.3438 12.3437C12.625 12.0625 12.625 11.625 12.3438 11.3437L10.4375 9.4375L12.3438 7.53125C12.5938 7.25 12.5938 6.8125 12.3125 6.53125Z" fill="currentColor"/>
</svg>