<svg width="16" height="16" viewBox="0 0 16 16" fill="none" xmlns="http://www.w3.org/2000/svg">
<path d="M4.89766 3.52624C4.67266 3.32624 4.29766 3.35124 4.09766 3.57624L0.647656 7.47624C0.372656 7.77624 0.372656 8.25124 0.647656 8.55124L4.12266 12.4512C4.22266 12.5762 4.39766 12.6512 4.54766 12.6512C4.67266 12.6512 4.82266 12.6012 4.92266 12.5012C5.14766 12.3012 5.17266 11.9262 4.97266 11.7012L1.67266 8.00124L4.94766 4.32624C5.17266 4.07624 5.14766 3.72624 4.89766 3.52624Z" fill="currentColor"/>
<path d="M15.3482 7.47624L11.8732 3.57624C11.6732 3.35124 11.3232 3.32624 11.0732 3.52624C10.8232 3.72624 10.8232 4.07624 11.0232 4.32624L14.3232 8.00124L11.0482 11.6762C10.8482 11.9012 10.8732 12.2512 11.0982 12.4762C11.1982 12.5762 11.3482 12.6262 11.4732 12.6262C11.6232 12.6262 11.7732 12.5512 11.8982 12.4262L15.3732 8.52624C15.6232 8.22624 15.6232 7.77624 15.3482 7.47624Z" fill="currentColor"/>
<path d="M9.47538 3.60116C9.17538 3.50116 8.85038 3.65116 8.77538 3.95116L6.17538 11.6762C6.07538 11.9762 6.22538 12.3012 6.52538 12.3762C6.57538 12.4012 6.65038 12.4012 6.70038 12.4012C6.92538 12.4012 7.15038 12.2512 7.22538 12.0262L9.80038 4.30116C9.92538 4.02616 9.77538 3.70116 9.47538 3.60116Z" fill="currentColor"/>
</svg>
