<svg width="20" height="20" viewBox="0 0 20 20" fill="none" xmlns="http://www.w3.org/2000/svg">
<path d="M17.2995 13.2305C16.987 13.2305 16.7005 13.4909 16.7005 13.8294V16.1471C16.7005 16.3815 16.5182 16.5638 16.2839 16.5638H3.73177C3.4974 16.5638 3.3151 16.3815 3.3151 16.1471V13.8294C3.3151 13.4909 3.02865 13.2305 2.71615 13.2305C2.40365 13.2305 2.11719 13.4909 2.11719 13.8294V16.1471C2.11719 17.0326 2.82031 17.7357 3.70573 17.7357H16.2839C17.1693 17.7357 17.8724 17.0326 17.8724 16.1471V13.8294C17.8984 13.4909 17.612 13.2305 17.2995 13.2305Z" fill="currentColor"/>
<path d="M6.64583 7.16146L9.43229 4.45313V13.4635C9.43229 13.776 9.69271 14.0625 10.0312 14.0625C10.3437 14.0625 10.6302 13.8021 10.6302 13.4635V4.45313L13.4167 7.16146C13.5208 7.26563 13.6771 7.31771 13.8333 7.31771C13.9896 7.31771 14.1458 7.26563 14.25 7.13542C14.4844 6.90104 14.4583 6.53646 14.25 6.30208L10.4219 2.65625C10.1875 2.44792 9.82292 2.44792 9.61458 2.65625L5.8125 6.32813C5.57812 6.5625 5.57812 6.92708 5.8125 7.16146C6.04687 7.36979 6.41146 7.39583 6.64583 7.16146Z" fill="currentColor"/>
</svg>
