<svg width="24" height="24" viewBox="0 0 24 24" fill="none" xmlns="http://www.w3.org/2000/svg">
<path d="M20 4L20.5606 4.49827C20.7568 4.27753 20.8052 3.96218 20.6842 3.69276C20.5632 3.42333 20.2953 3.25 20 3.25V4ZM13.5 11.3125L12.9394 10.8142C12.8174 10.9515 12.75 11.1288 12.75 11.3125H13.5ZM13.5 20L13.2628 20.7115C13.4915 20.7878 13.743 20.7494 13.9385 20.6084C14.1341 20.4675 14.25 20.2411 14.25 20H13.5ZM10.5 19H9.75C9.75 19.3228 9.95657 19.6094 10.2628 19.7115L10.5 19ZM10.5 11.3125H11.25C11.25 11.1288 11.1826 10.9515 11.0606 10.8142L10.5 11.3125ZM4 4V3.25C3.70466 3.25 3.43681 3.42333 3.31582 3.69276C3.19483 3.96218 3.24323 4.27753 3.43944 4.49827L4 4ZM20 4L19.4394 3.50173L12.9394 10.8142L13.5 11.3125L14.0606 11.8108L20.5606 4.49827L20 4ZM13.5 11.3125H12.75V20H13.5H14.25V11.3125H13.5ZM13.5 20L13.7372 19.2885L10.7372 18.2885L10.5 19L10.2628 19.7115L13.2628 20.7115L13.5 20ZM10.5 19H11.25V11.3125H10.5H9.75V19H10.5ZM10.5 11.3125L11.0606 10.8142L4.56056 3.50173L4 4L3.43944 4.49827L9.93944 11.8108L10.5 11.3125ZM4 4V4.75H20V4V3.25H4V4Z" fill="#8899A8"/>
</svg>
