<svg width="20" height="20" viewBox="0 0 20 20" fill="none" xmlns="http://www.w3.org/2000/svg">
<path d="M17.2995 13.2539C16.987 13.2539 16.7005 13.5143 16.7005 13.8529V16.1706C16.7005 16.4049 16.5182 16.5872 16.2839 16.5872H3.73177C3.4974 16.5872 3.3151 16.4049 3.3151 16.1706V13.8529C3.3151 13.5143 3.02865 13.2539 2.71615 13.2539C2.40365 13.2539 2.11719 13.5143 2.11719 13.8529V16.1706C2.11719 17.056 2.82031 17.7591 3.70573 17.7591H16.2839C17.1693 17.7591 17.8724 17.056 17.8724 16.1706V13.8529C17.8984 13.5143 17.612 13.2539 17.2995 13.2539Z" fill="#374151"/>
<path d="M9.59064 13.9063C9.69481 14.0104 9.85106 14.0625 10.0073 14.0625C10.1636 14.0625 10.2938 14.0104 10.424 13.9063L14.2 10.2344C14.4344 10 14.4344 9.63542 14.2 9.40104C13.9656 9.16667 13.6011 9.16667 13.3667 9.40104L10.6063 12.1094V3.09896C10.6063 2.78646 10.3458 2.5 10.0073 2.5C9.69481 2.5 9.40835 2.76042 9.40835 3.09896V12.1094L6.64793 9.40104C6.41356 9.16667 6.04897 9.19271 5.8146 9.40104C5.58022 9.63542 5.60626 10 5.8146 10.2344L9.59064 13.9063Z" fill="#374151"/>
</svg>
