<svg width="24" height="24" viewBox="0 0 24 24" xmlns="http://www.w3.org/2000/svg">
<g clip-path="url(#clip0_711_125990)">
<path d="M4.625 16.5H2.375V9.75H0.125V7.5H4.625V16.5ZM14.375 14.25H9.875V12.75H12.875C13.7 12.75 14.375 12.075 14.375 11.25V9C14.375 8.175 13.7 7.5 12.875 7.5H7.625V9.75H12.125V11.25H9.125C8.3 11.25 7.625 11.925 7.625 12.75V16.5H14.375V14.25ZM23.375 15V9C23.375 8.175 22.7 7.5 21.875 7.5H16.625V9.75H21.125V11.25H18.125V12.75H21.125V14.25H16.625V16.5H21.875C22.7 16.5 23.375 15.825 23.375 15Z" fill="currentColor"/>
</g>
<defs>
<clipPath id="clip0_711_125990">
<rect width="24" height="24" fill="white"/>
</clipPath>
</defs>
</svg>
