<svg width="24" height="24" viewBox="0 0 24 24" fill="none" xmlns="http://www.w3.org/2000/svg">
<path d="M8.99951 12C8.99951 14.38 10.1895 16.47 11.9995 17.74C13.8095 16.47 14.9995 14.38 14.9995 12C14.9995 9.62 13.8095 7.53 11.9995 6.26C10.1895 7.53 8.99951 9.62 8.99951 12Z" fill="currentColor"/>
<path d="M7.49951 12C7.49951 9.48 8.62951 7.11 10.5495 5.5C9.75951 5.19 8.90951 5 7.99951 5C4.12951 5 0.999512 8.13 0.999512 12C0.999512 15.87 4.12951 19 7.99951 19C8.89951 19 9.75951 18.81 10.5495 18.5C8.63951 16.89 7.49951 14.52 7.49951 12Z" fill="currentColor"/>
<path d="M15.9995 5C15.0995 5 14.2395 5.19 13.4495 5.5C15.3595 7.11 16.4995 9.48 16.4995 12C16.4995 14.52 15.3695 16.89 13.4495 18.5C14.2395 18.81 15.0895 19 15.9995 19C19.8695 19 22.9995 15.87 22.9995 12C22.9995 8.13 19.8695 5 15.9995 5Z" fill="currentColor"/>
</svg>
