<svg width="20" height="20" viewBox="0 0 20 20" fill="none" xmlns="http://www.w3.org/2000/svg">
<path d="M3.33203 16.6663L2.85127 16.529C2.80138 16.7036 2.85008 16.8915 2.97848 17.0199C3.10687 17.1483 3.29479 17.197 3.46939 17.1471L3.33203 16.6663ZM5.75632 8.1815L5.56594 7.71917C5.42455 7.77739 5.31757 7.89711 5.27556 8.04414L5.75632 8.1815ZM10.0492 6.41383L10.4028 6.06027C10.2601 5.91754 10.0455 5.87463 9.85885 5.95149L10.0492 6.41383ZM13.5846 9.94919L14.0469 10.1396C14.1238 9.95292 14.0808 9.73837 13.9381 9.59564L13.5846 9.94919ZM11.8169 14.2421L11.9543 14.7229C12.1013 14.6809 12.221 14.5739 12.2792 14.4325L11.8169 14.2421ZM11.8169 3.33301L12.1705 2.97946C12.0767 2.88569 11.9495 2.83301 11.8169 2.83301C11.6843 2.83301 11.5571 2.88569 11.4633 2.97946L11.8169 3.33301ZM16.6654 8.18151L17.0189 8.53506C17.2142 8.3398 17.2142 8.02322 17.0189 7.82796L16.6654 8.18151ZM15.4532 9.39364L15.0997 9.74719C15.1935 9.84096 15.3206 9.89364 15.4532 9.89364C15.5859 9.89364 15.713 9.84096 15.8068 9.74719L15.4532 9.39364ZM10.6048 4.54513L10.2512 4.19158C10.056 4.38684 10.056 4.70342 10.2512 4.89869L10.6048 4.54513ZM9.14016 11.5654C9.33542 11.3701 9.33542 11.0535 9.14016 10.8583C8.9449 10.663 8.62832 10.663 8.43305 10.8583L8.7866 11.2118L9.14016 11.5654ZM9.3925 11.8178L9.03895 11.4642C8.89949 11.6037 8.6734 11.6037 8.53394 11.4642L8.18039 11.8178L7.82683 12.1714C8.35681 12.7013 9.21608 12.7013 9.74606 12.1714L9.3925 11.8178ZM8.18039 11.8178L8.53394 11.4642C8.39448 11.3248 8.39448 11.0987 8.53394 10.9592L8.18039 10.6057L7.82683 10.2521C7.29685 10.7821 7.29685 11.6414 7.82683 12.1714L8.18039 11.8178ZM8.18039 10.6057L8.53394 10.9592C8.6734 10.8198 8.89949 10.8198 9.03895 10.9592L9.3925 10.6057L9.74606 10.2521C9.21608 9.72214 8.35681 9.72214 7.82683 10.2521L8.18039 10.6057ZM9.3925 10.6057L9.03895 10.9592C9.17841 11.0987 9.17841 11.3248 9.03895 11.4642L9.3925 11.8178L9.74606 12.1714C10.276 11.6414 10.276 10.7821 9.74606 10.2521L9.3925 10.6057ZM3.33203 16.6663L3.81279 16.8037L6.23708 8.31887L5.75632 8.1815L5.27556 8.04414L2.85127 16.529L3.33203 16.6663ZM5.75632 8.1815L5.94669 8.64384L10.2396 6.87617L10.0492 6.41383L9.85885 5.95149L5.56594 7.71917L5.75632 8.1815ZM10.0492 6.41383L9.69567 6.76738L13.231 10.3027L13.5846 9.94919L13.9381 9.59564L10.4028 6.06027L10.0492 6.41383ZM13.5846 9.94919L13.1222 9.75882L11.3546 14.0518L11.8169 14.2421L12.2792 14.4325L14.0469 10.1396L13.5846 9.94919ZM11.8169 14.2421L11.6795 13.7614L3.19467 16.1856L3.33203 16.6663L3.46939 17.1471L11.9543 14.7229L11.8169 14.2421ZM11.8169 3.33301L11.4633 3.68656L16.3118 8.53506L16.6654 8.18151L17.0189 7.82796L12.1705 2.97946L11.8169 3.33301ZM16.6654 8.18151L16.3118 7.82796L15.0997 9.04008L15.4532 9.39364L15.8068 9.74719L17.0189 8.53506L16.6654 8.18151ZM15.4532 9.39364L15.8068 9.04008L10.9583 4.19158L10.6048 4.54513L10.2512 4.89869L15.0997 9.74719L15.4532 9.39364ZM10.6048 4.54513L10.9583 4.89869L12.1705 3.68656L11.8169 3.33301L11.4633 2.97946L10.2512 4.19158L10.6048 4.54513ZM8.7866 11.2118L8.43305 10.8583L2.97848 16.3128L3.33203 16.6663L3.68558 17.0199L9.14016 11.5654L8.7866 11.2118Z" fill="currentColor"/>
</svg>
