<svg width="20" height="20" viewBox="0 0 20 20" fill="none" xmlns="http://www.w3.org/2000/svg">
<path d="M14.4111 3.57806C14.7366 3.25263 15.2641 3.25263 15.5895 3.57806L18.0895 6.07806C18.415 6.4035 18.415 6.93101 18.0895 7.25645L15.5895 9.75645C15.2641 10.0819 14.7366 10.0819 14.4111 9.75645C14.0857 9.43101 14.0857 8.9035 14.4111 8.57806L15.4886 7.50059H13.8903C12.7303 7.50062 11.7229 8.29859 11.457 9.42767L11.0632 11.1025C10.6398 12.9016 9.17327 14.234 7.39534 14.5237C7.05642 15.7591 5.9267 16.6673 4.58366 16.6673C2.97283 16.6673 1.66699 15.3614 1.66699 13.7506C1.66699 12.1398 2.97283 10.8339 4.58366 10.8339C5.87334 10.8339 6.96637 11.6713 7.3514 12.8318C8.37022 12.5797 9.19137 11.7789 9.44043 10.7208L9.83431 9.046C10.2772 7.16399 11.9569 5.83396 13.8903 5.83392H15.4886L14.4111 4.75645C14.0857 4.43101 14.0857 3.9035 14.4111 3.57806ZM3.33366 13.7506C3.33366 14.4409 3.8933 15.0006 4.58366 15.0006C5.27401 15.0006 5.83366 14.4409 5.83366 13.7506C5.83366 13.0602 5.27401 12.5006 4.58366 12.5006C3.8933 12.5006 3.33366 13.0602 3.33366 13.7506Z" fill="currentColor"/>
</svg>
