<svg width="14" height="14" viewBox="0 0 14 14" fill="none" xmlns="http://www.w3.org/2000/svg">
<path d="M2.3335 3.60294L11.6668 3.60294M9.3335 12.25H4.66683C4.0225 12.25 3.50016 11.6969 3.50016 11.0147V4.22059C3.50016 3.87947 3.76133 3.60294 4.0835 3.60294H9.91683C10.239 3.60294 10.5002 3.87947 10.5002 4.22059V11.0147C10.5002 11.6969 9.97783 12.25 9.3335 12.25ZM5.8335 3.60294H8.16683C8.489 3.60294 8.75016 3.32641 8.75016 2.98529V2.36765C8.75016 2.02653 8.489 1.75 8.16683 1.75H5.8335C5.51133 1.75 5.25016 2.02653 5.25016 2.36765V2.98529C5.25016 3.32641 5.51133 3.60294 5.8335 3.60294Z" stroke="currentColor" stroke-width="1.2" stroke-linecap="round"/>
</svg>
