<svg width="28" height="28" viewBox="0 0 28 28" xmlns="http://www.w3.org/2000/svg">
<path fill-rule="evenodd" clip-rule="evenodd" d="M13.9653 6.73344C13.6882 6.53156 13.3122 6.53156 13.0343 6.73344L7.95823 10.4257V19.666C7.95823 20.103 8.31289 20.4576 8.74988 20.4576H10.3332V15.7077C10.3332 14.3959 11.3964 13.3327 12.7082 13.3327H14.2915C15.6033 13.3327 16.6665 14.3959 16.6665 15.7077V20.4576H18.2498C18.6868 20.4576 19.0414 20.103 19.0414 19.666V10.4257L13.9653 6.73344ZM20.6247 11.5777L21.7426 12.3907C22.0956 12.648 22.5912 12.5696 22.8485 12.2158C23.1058 11.8627 23.0274 11.3671 22.6736 11.1098L14.8971 5.45421C14.0635 4.8486 12.9362 4.8486 12.1026 5.45421L4.3261 11.1098C3.97223 11.3671 3.89465 11.8627 4.15114 12.2158C4.40843 12.5696 4.90401 12.648 5.25709 12.3907L6.37491 11.5777V19.6668C6.37491 20.9786 7.43811 22.0418 8.74988 22.0418H18.2498C19.5616 22.0418 20.6247 20.9786 20.6247 19.6668V11.5777ZM15.0831 20.4596V15.7096C15.0831 15.2726 14.7285 14.918 14.2915 14.918H12.7082C12.2712 14.918 11.9165 15.2726 11.9165 15.7096V20.4596H15.0831Z"/>
</svg>
