<svg width="28" height="28" viewBox="0 0 28 28" fill="none" xmlns="http://www.w3.org/2000/svg">
<path d="M10 12.4118C12.0619 12.4118 13.7333 10.7526 13.7333 8.70588C13.7333 6.65918 12.0619 5 10 5C7.93814 5 6.26667 6.65918 6.26667 8.70588C6.26667 10.7526 7.93814 12.4118 10 12.4118ZM10 12.4118C11.0506 12.4118 12.0909 12.6583 13.0615 13.1371C14.0321 13.616 14.914 14.318 15.6569 15.2029C16.3997 16.0878 16.989 17.1383 17.391 18.2944C17.7931 19.4506 18 20.6898 18 21.9412C18 21.9412 15.3333 23 10 23C4.66667 23 2 21.9412 2 21.9412C2 20.6898 2.20693 19.4506 2.60896 18.2944C3.011 17.1383 3.60028 16.0878 4.34315 15.2029C5.08601 14.318 5.96793 13.616 6.93853 13.1371C7.90914 12.6583 8.94942 12.4118 10 12.4118ZM19.5 14.1765C21.1753 14.1765 22.5333 12.7938 22.5333 11.0882C22.5333 9.38265 21.1753 8 19.5 8C17.8247 8 16.4667 9.38265 16.4667 11.0882C16.4667 12.7938 17.8247 14.1765 19.5 14.1765ZM19.5 14.1765C20.3536 14.1765 21.1988 14.3819 21.9874 14.781C22.7761 15.18 23.4926 15.765 24.0962 16.5024C24.6998 17.2398 25.1786 18.1152 25.5052 19.0787C25.8319 20.0422 26 21.0748 26 22.1176C26 22.1176 23.8333 23 19.5 23C17.5704 23 16.0704 22.825 15 22.6309M19.5 14.1765C18.6464 14.1765 17.8012 14.3819 17.0126 14.781C16.625 14.9771 16.2549 15.2181 15.907 15.5" stroke="currentColor" stroke-width="1.5" stroke-linejoin="round"/>
</svg>
