<svg width="28" height="28" viewBox="0 0 28 28" xmlns="http://www.w3.org/2000/svg">
<path fill-rule="evenodd" clip-rule="evenodd" d="M24.1922 9.80781L21.6922 7.30781C21.5342 7.14983 21.304 7.08814 21.0881 7.14596C20.8723 7.20378 20.7038 7.37235 20.646 7.58815C20.5881 7.80395 20.6498 8.03421 20.8078 8.19219L22.2414 9.625H20C19.2343 9.65275 18.4816 9.83143 17.7852 10.1508C16.7211 10.6422 15.3766 11.6906 15.0086 13.9008C14.593 16.3961 12.7352 16.9648 11.8055 17.093C11.4659 15.5255 9.99489 14.4696 8.40119 14.6493C6.80749 14.829 5.60854 16.1859 5.62651 17.7896C5.64449 19.3933 6.87355 20.7231 8.47088 20.867C10.0682 21.0109 11.5152 19.9223 11.8195 18.3477C12.3814 18.2836 12.9304 18.1348 13.4477 17.9062C14.5117 17.4375 15.8594 16.3906 16.2414 14.1023C16.7695 10.9352 19.8703 10.875 20 10.875H22.2414L20.8078 12.3078C20.5636 12.552 20.5636 12.948 20.8078 13.1922C21.052 13.4364 21.448 13.4364 21.6922 13.1922L24.1922 10.6922C24.3095 10.575 24.3755 10.4159 24.3755 10.25C24.3755 10.0841 24.3095 9.92504 24.1922 9.80781ZM8.75 19.625C7.71447 19.625 6.875 18.7855 6.875 17.75C6.875 16.7145 7.71447 15.875 8.75 15.875C9.78553 15.875 10.625 16.7145 10.625 17.75C10.625 18.7855 9.78553 19.625 8.75 19.625Z" stroke-width="0.3"/>
</svg>
