<svg width="28" height="28" viewBox="0 0 28 28" xmlns="http://www.w3.org/2000/svg">
<path fill-rule="evenodd" clip-rule="evenodd" d="M14 5.0625C9.37398 5.0625 5.75 7.17656 5.75 9.875V18.125C5.75 20.8234 9.37398 22.9375 14 22.9375C18.626 22.9375 22.25 20.8234 22.25 18.125V9.875C22.25 7.17656 18.626 5.0625 14 5.0625ZM20.875 14C20.875 14.8267 20.1978 15.6698 19.0179 16.3134C17.6893 17.0379 15.907 17.4375 14 17.4375C12.093 17.4375 10.3107 17.0379 8.98211 16.3134C7.80219 15.6698 7.125 14.8267 7.125 14V12.57C8.59109 13.8591 11.0979 14.6875 14 14.6875C16.9021 14.6875 19.4089 13.8556 20.875 12.57V14ZM8.98211 7.56156C10.3107 6.83711 12.093 6.4375 14 6.4375C15.907 6.4375 17.6893 6.83711 19.0179 7.56156C20.1978 8.20523 20.875 9.04828 20.875 9.875C20.875 10.7017 20.1978 11.5448 19.0179 12.1884C17.6893 12.9129 15.907 13.3125 14 13.3125C12.093 13.3125 10.3107 12.9129 8.98211 12.1884C7.80219 11.5448 7.125 10.7017 7.125 9.875C7.125 9.04828 7.80219 8.20523 8.98211 7.56156ZM19.0179 20.4384C17.6893 21.1629 15.907 21.5625 14 21.5625C12.093 21.5625 10.3107 21.1629 8.98211 20.4384C7.80219 19.7948 7.125 18.9517 7.125 18.125V16.695C8.59109 17.9841 11.0979 18.8125 14 18.8125C16.9021 18.8125 19.4089 17.9806 20.875 16.695V18.125C20.875 18.9517 20.1978 19.7948 19.0179 20.4384Z" stroke-width="0.3"/>
</svg>
