<svg width="32" height="32" viewBox="0 0 32 32" fill="none" xmlns="http://www.w3.org/2000/svg">
<rect width="32" height="32" rx="4" fill="white"/>
<path d="M7.97655 18.9705C7.97655 18.9705 9.61844 18.3002 10.8294 17.3033C10.8294 17.3033 12.5558 15.9402 12.8346 15.636C12.8346 15.636 13.9865 14.594 14.2484 14.3208C14.2484 14.3208 15.9297 12.6423 17.6505 11.7608C17.6505 11.7608 20.3654 10.0344 24.3616 10.1049C24.3616 10.1049 27.6961 10.1049 29.9238 11.3806C29.9238 11.3806 29.3718 9.57821 27.6229 7.38996C27.6229 7.38996 26.1894 5.55375 24.0068 4.17659C24.0068 4.17659 21.4158 2.37981 17.5744 1.98271C17.5744 1.98271 14.8708 1.65321 12.1531 2.39389C12.1531 2.39389 9.03829 3.07824 6.23328 5.48053C6.23328 5.48053 4.09009 7.25478 2.74391 9.93869C2.74391 9.93869 1.65683 12.1523 1.44561 14.2194C1.44561 14.2194 1.10484 16.4274 1.60895 18.81C1.60895 18.81 2.63407 19.5844 4.81106 19.6211C4.81106 19.6211 6.41915 19.683 7.97937 18.9705H7.97655Z" fill="#005EB8"/>
<path d="M27.6143 18.4917C25.84 18.0383 24.2939 17.5286 20.7313 20.0885C20.7313 20.0885 17.8446 22.0487 15.4874 22.7612C15.4874 22.7612 9.36478 25.2818 2.42548 21.4657C2.42548 21.4657 4.39969 26.8786 10.618 29.0612C10.618 29.0612 15.3803 31.165 20.6158 29.3569C20.6158 29.3569 24.8008 28.2811 27.6649 24.5214C27.6649 24.5214 29.1041 23.04 30.0081 20.3167L30.0982 20.0435C29.4589 19.0212 27.6143 18.4945 27.6143 18.4945V18.4917Z" fill="#005EB8"/>
<path d="M30.5377 13.9688C25.7444 11.5158 19.9119 13.6674 17.0787 17.92V17.9482C18.8417 16.74 20.7399 15.8979 22.7845 15.422C25.6796 14.9798 28.2959 15.9148 30.6391 17.0836C30.701 15.9543 30.6532 14.9545 30.5377 13.966V13.9688Z" fill="#005EB8"/>
</svg>
