<svg width="92" height="32" viewBox="0 0 92 32" fill="none" xmlns="http://www.w3.org/2000/svg">
<path d="M5.11924 13.7255C5.11924 13.7255 5.97161 13.3775 6.60029 12.86C6.60029 12.86 7.49652 12.1523 7.64126 11.9944C7.64126 11.9944 8.23923 11.4535 8.3752 11.3117C8.3752 11.3117 9.24804 10.4403 10.1413 9.98266C10.1413 9.98266 11.5508 9.08642 13.6254 9.12298C13.6254 9.12298 15.3564 9.12298 16.5129 9.78528C16.5129 9.78528 16.2264 8.84957 15.3184 7.71357C15.3184 7.71357 14.5743 6.76032 13.4412 6.04538C13.4412 6.04538 12.0961 5.1126 10.1019 4.90645C10.1019 4.90645 8.69831 4.73539 7.28745 5.11991C7.28745 5.11991 5.67043 5.47518 4.21424 6.7223C4.21424 6.7223 3.10162 7.64339 2.40277 9.03672C2.40277 9.03672 1.83842 10.1859 1.72877 11.259C1.72877 11.259 1.55186 12.4053 1.81356 13.6421C1.81356 13.6421 2.34575 14.0442 3.4759 14.0632C3.4759 14.0632 4.31073 14.0954 5.1207 13.7255H5.11924Z" fill="currentColor"/>
<path d="M15.3139 13.4769C14.3928 13.2416 13.5902 12.9769 11.7407 14.3059C11.7407 14.3059 10.2421 15.3235 9.01837 15.6934C9.01837 15.6934 5.8399 17.0019 2.23743 15.0209C2.23743 15.0209 3.26232 17.8309 6.4905 18.964C6.4905 18.964 8.96281 20.0561 11.6807 19.1175C11.6807 19.1175 13.8533 18.559 15.3402 16.6072C15.3402 16.6072 16.0873 15.8381 16.5567 14.4243L16.6034 14.2825C16.2716 13.7518 15.3139 13.4784 15.3139 13.4784V13.4769Z" fill="currentColor"/>
<path d="M16.8316 11.1289C14.3433 9.85546 11.3154 10.9725 9.84456 13.1801V13.1948C10.7598 12.5675 11.7452 12.1304 12.8066 11.8833C14.3096 11.6538 15.6679 12.1392 16.8843 12.7459C16.9164 12.1596 16.8916 11.6406 16.8316 11.1274V11.1289Z" fill="currentColor"/>
<path d="M40.5239 7.31445L36.629 17.0677H40.6291L44.5342 7.31445H40.5239Z" fill="currentColor"/>
<path d="M64.2939 10.721L67.142 17.0678H71.7942L75.6993 7.32764H71.9009L69.4724 13.4127L66.8291 7.32764H61.709L57.8112 17.0678H61.6885L64.2939 10.721Z" fill="currentColor"/>
<path d="M77.2358 7.31885L76.4024 9.39641H80.6789L77.6101 17.0677L81.3967 17.0648L84.4758 9.40518H88.6953L89.5301 7.31885H77.2358Z" fill="currentColor"/>
<path d="M52.56 17.0604H56.8116L55.8452 7.32178H50.3991L41.7204 17.0677H45.7176L46.7133 15.8776L52.2997 15.8893L52.56 17.0604ZM52.2135 9.22243L52.3626 13.8103L48.5788 13.8249L52.2135 9.22389V9.22243Z" fill="currentColor"/>
<path d="M30.6872 11.6947L30.0015 13.5647C31.4899 13.5574 31.9241 13.5647 31.9241 13.5647C31.851 13.727 31.6317 14.0735 31.6317 14.0735C31.3627 14.5062 30.8173 14.8717 30.3202 15.1027C29.6331 15.4215 27.3201 15.9463 25.9326 15.0633C25.5233 14.803 25.2996 14.3366 25.2221 13.8454C25.1139 13.1582 25.4165 12.0982 26.0598 11.0792C27.2017 9.41686 29.3977 8.83935 31.2881 9.30867C31.8422 9.4461 32.5805 9.82477 32.6887 10.7517L37.0105 10.7444C37.1962 10.0221 37.1845 9.01187 36.6479 8.49723C36.3614 8.22237 36.0763 8.02792 35.5777 7.83785C34.5455 7.44456 32.4373 7.08636 30.6463 7.08636C28.3742 7.08636 26.013 7.53814 24.1314 8.76917C22.0845 10.2605 20.2687 13.0954 20.9661 15.3922C21.3652 16.787 23.089 17.6204 26.2338 17.6204C27.3713 17.6204 28.4634 17.3938 29.5219 17.135C31.1404 16.7388 32.8115 16.3308 34.5908 17.0472C35.1757 15.5223 36.3292 12.7181 36.7269 11.6962H30.6857L30.6872 11.6947Z" fill="currentColor"/>
<path d="M65.719 20.3763C63.8505 20.3763 62.3022 21.3486 61.6764 22.9144C61.3782 23.6601 61.3899 24.3048 61.7101 24.7771C62.0697 25.3093 62.7861 25.59 63.7832 25.59C65.6517 25.59 67.2 24.6177 67.8258 23.0519C68.124 22.3062 68.1123 21.6615 67.7921 21.1892C67.4325 20.6571 66.7161 20.3763 65.719 20.3763ZM66.4748 22.9144C66.0494 23.9803 65.159 24.5914 64.0347 24.5914C63.6721 24.5914 63.1969 24.5256 62.9835 24.2098C62.811 23.9554 62.8271 23.5548 63.0274 23.0519C63.4528 21.9861 64.3432 21.3749 65.4675 21.3749C65.8301 21.3749 66.3052 21.4407 66.5187 21.7565C66.6912 22.0109 66.6751 22.4115 66.4748 22.9144Z" fill="currentColor"/>
<path d="M73.7076 20.4816L72.5204 23.4525C72.209 24.2318 71.649 24.5797 70.7046 24.5797C70.2382 24.5797 69.9428 24.4949 69.8288 24.3253C69.7279 24.1777 69.7469 23.9291 69.8829 23.5885L71.1256 20.4802H69.7382L68.5203 23.5241C68.2513 24.1952 68.396 24.6338 68.5656 24.8838C68.8785 25.3458 69.5291 25.59 70.4472 25.59C71.9707 25.59 73.1286 25.2625 73.8216 23.6674L75.0965 20.4802H73.7091L73.7076 20.4816Z" fill="currentColor"/>
<path d="M51.1152 23.5957H52.6298C52.2468 24.1805 51.4295 24.5943 50.6005 24.5943C50.2482 24.5943 49.7818 24.5256 49.5625 24.2025C49.3797 23.932 49.3929 23.5153 49.6005 22.9963C50.0201 21.948 50.966 21.3471 52.1956 21.3471C52.817 21.3471 53.0787 21.4991 53.1883 21.6278C53.2951 21.7521 53.2921 21.8939 53.2819 21.967L53.2687 22.0503H54.6606C54.7746 21.7506 54.7308 21.4158 54.5363 21.1292C54.339 20.8383 53.8053 20.35 52.4471 20.35C50.4792 20.35 48.8724 21.312 48.2539 22.8588C47.9498 23.6191 47.9645 24.2785 48.2949 24.7668C48.6604 25.3063 49.3695 25.5899 50.3476 25.5899C50.7102 25.5899 51.1532 25.473 51.4763 25.3867L51.5435 25.3692C52.0304 25.2405 52.5947 25.1425 53.0948 25.3779L53.2731 25.4613L54.415 22.6044H51.5114L51.1152 23.5957Z" fill="currentColor"/>
<path d="M78.9893 20.4816H76.2509L74.2494 25.4876H75.6369L76.2875 23.8603H77.7466C79.2233 23.8603 80.352 23.2463 80.7628 22.2185C80.985 21.6614 80.8651 21.2988 80.7262 21.0927C80.4514 20.6877 79.868 20.4816 78.9893 20.4816ZM79.4016 22.1234C79.2028 22.6205 78.6574 22.8939 77.8636 22.8939H76.6735L77.2495 21.4538H78.5493C78.9937 21.4538 79.2993 21.5415 79.4075 21.7024C79.4747 21.8018 79.4733 21.9436 79.4016 22.1234Z" fill="currentColor"/>
<path d="M59.3592 20.4889H56.4424L54.4438 25.4861H55.8415L56.517 23.796H58.0989L58.7817 25.4861H60.2481L59.463 23.6016C60.2949 23.3501 60.8885 22.8589 61.1561 22.1892C61.3695 21.6571 61.2511 21.3047 61.1151 21.1029C60.8432 20.7009 60.235 20.4889 59.3592 20.4889ZM59.7978 22.0884C59.6107 22.5562 59.0653 22.8238 58.3022 22.8238H56.9059L57.4498 21.4611H58.9542C59.5463 21.4611 59.7379 21.6132 59.7993 21.7038C59.8621 21.796 59.8607 21.9261 59.7964 22.0869L59.7978 22.0884Z" fill="currentColor"/>
</svg>
