<svg width="24" height="24" viewBox="0 0 24 24" fill="none" xmlns="http://www.w3.org/2000/svg">
<path d="M12 3C16.9706 3 21 7.02944 21 12C21 16.9706 16.9706 21 12 21C7.02944 21 3 16.9706 3 12C3 7.02944 7.02944 3 12 3Z" fill="transparent"/>
<path d="M12 3V2.25V3ZM3 12H2.25H3ZM12 3V3.75C16.5563 3.75 20.25 7.44365 20.25 12H21H21.75C21.75 6.61522 17.3848 2.25 12 2.25V3ZM21 12H20.25C20.25 16.5563 16.5563 20.25 12 20.25V21V21.75C17.3848 21.75 21.75 17.3848 21.75 12H21ZM12 21V20.25C7.44365 20.25 3.75 16.5563 3.75 12H3H2.25C2.25 17.3848 6.61522 21.75 12 21.75V21ZM3 12H3.75C3.75 7.44365 7.44365 3.75 12 3.75V3V2.25C6.61522 2.25 2.25 6.61522 2.25 12H3Z" fill="currentColor"/>
<path d="M12 8C12.4418 8 12.7997 8.35807 12.7998 8.7998V11.2002H15.2002C15.6419 11.2003 16 11.5582 16 12C16 12.4418 15.6419 12.7997 15.2002 12.7998H12.7998V15.2002C12.7997 15.6419 12.4418 16 12 16C11.5582 16 11.2003 15.6419 11.2002 15.2002V12.7998H8.7998C8.35807 12.7997 8 12.4418 8 12C8 11.5582 8.35807 11.2003 8.7998 11.2002H11.2002V8.7998C11.2003 8.35807 11.5582 8 12 8Z" fill="currentColor"/>
</svg>
