<svg width="20" height="20" viewBox="0 0 20 20" fill="none" xmlns="http://www.w3.org/2000/svg">
<path d="M9.9915 1.66602C5.3915 1.66602 1.6665 5.39935 1.6665 9.99935C1.6665 14.5993 5.3915 18.3327 9.9915 18.3327C14.5998 18.3327 18.3332 14.5993 18.3332 9.99935C18.3332 5.39935 14.5998 1.66602 9.9915 1.66602ZM9.99984 16.666C6.3165 16.666 3.33317 13.6827 3.33317 9.99935C3.33317 6.31602 6.3165 3.33268 9.99984 3.33268C13.6832 3.33268 16.6665 6.31602 16.6665 9.99935C16.6665 13.6827 13.6832 16.666 9.99984 16.666ZM12.9165 9.16602C13.6082 9.16602 14.1665 8.60768 14.1665 7.91602C14.1665 7.22435 13.6082 6.66602 12.9165 6.66602C12.2248 6.66602 11.6665 7.22435 11.6665 7.91602C11.6665 8.60768 12.2248 9.16602 12.9165 9.16602ZM7.08317 9.16602C7.77484 9.16602 8.33317 8.60768 8.33317 7.91602C8.33317 7.22435 7.77484 6.66602 7.08317 6.66602C6.3915 6.66602 5.83317 7.22435 5.83317 7.91602C5.83317 8.60768 6.3915 9.16602 7.08317 9.16602ZM9.99984 14.5827C11.9415 14.5827 13.5915 13.366 14.2582 11.666H5.7415C6.40817 13.366 8.05817 14.5827 9.99984 14.5827Z" fill="currentColor"/>
</svg>
