<svg width="24" height="24" viewBox="0 0 24 24" fill="none" xmlns="http://www.w3.org/2000/svg">
<path d="M8 5C8.90993 5 9.75985 5.19004 10.5498 5.5C10.1199 5.85998 9.72962 6.26047 9.38965 6.69043C8.93972 6.57047 8.47992 6.5 8 6.5C4.97 6.5 2.5 8.97 2.5 12C2.5 15.03 4.97 17.5 8 17.5C8.47992 17.5 8.94971 17.4295 9.38965 17.3096C9.73962 17.7395 10.1199 18.14 10.5498 18.5C9.75985 18.81 8.89994 19 8 19C4.13 19 1 15.87 1 12C1 8.13 4.13 5 8 5ZM16 5C19.87 5 23 8.13 23 12C23 15.87 19.87 19 16 19C15.1001 19 14.2401 18.81 13.4502 18.5C13.8801 18.14 14.2604 17.7395 14.6104 17.3096C15.0503 17.4295 15.5201 17.5 16 17.5C19.03 17.5 21.5 15.03 21.5 12C21.5 8.97 19.03 6.5 16 6.5C15.5201 6.5 15.0603 6.57047 14.6104 6.69043C14.2704 6.26047 13.8801 5.85998 13.4502 5.5C14.2401 5.19004 15.0901 5 16 5ZM11.9805 6.23047C13.7905 7.50047 14.9805 9.5907 14.9805 11.9707C14.9804 14.3506 13.7904 16.441 11.9805 17.7109C11.5506 17.411 11.1605 17.0608 10.8105 16.6709C10.7306 16.5809 10.6503 16.4808 10.5703 16.3809C10.4903 16.2909 10.4206 16.2004 10.3506 16.1104C10.2706 16.0004 10.2009 15.9 10.1309 15.79C10.0709 15.6901 10.0004 15.5904 9.94043 15.4805C9.88051 15.3806 9.82066 15.2807 9.76074 15.1709C9.66079 14.971 9.56045 14.7607 9.48047 14.5508C9.45047 14.4808 9.43039 14.4003 9.40039 14.3203C9.34042 14.1604 9.29022 13.9903 9.24023 13.8203C9.21032 13.7305 9.19085 13.6406 9.1709 13.5508C9.1309 13.3808 9.10031 13.2103 9.07031 13.0303C9.05033 12.9503 9.03027 12.8602 9.03027 12.7803C9.00029 12.5203 8.98047 12.2602 8.98047 11.9902C8.98048 11.7203 9.00028 11.4601 9.03027 11.2002C9.04028 11.1203 9.06032 11.0301 9.07031 10.9502C9.10029 10.7803 9.13093 10.6006 9.1709 10.4307C9.1909 10.3407 9.22023 10.2502 9.24023 10.1602C9.29021 9.98025 9.34042 9.82032 9.40039 9.65039C9.43034 9.57053 9.45055 9.50073 9.48047 9.4209C9.57043 9.21098 9.67055 9.00071 9.77051 8.80078C9.83051 8.70078 9.89019 8.59023 9.9502 8.49023C10.0102 8.39027 10.0707 8.28063 10.1406 8.18066C10.2106 8.07066 10.2723 7.98385 10.3604 7.86035C10.4484 7.73685 10.6209 7.4896 10.8105 7.27051C11.2106 6.80827 11.5505 6.53047 11.9805 6.23047Z" fill="currentColor"/>
</svg>
