<svg width="20" height="20" viewBox="0 0 20 20" fill="none" xmlns="http://www.w3.org/2000/svg">
<path d="M5.23679 6.25C6.28876 6.25 7.14156 5.41053 7.14156 4.375C7.14156 3.33947 6.28876 2.5 5.23679 2.5C4.18482 2.5 3.33203 3.33947 3.33203 4.375C3.33203 5.41053 4.18482 6.25 5.23679 6.25ZM5.23679 6.25V10M12.8558 10C12.8558 11.0355 13.7086 11.875 14.7606 11.875C15.8126 11.875 16.6654 11.0355 16.6654 10C16.6654 8.96447 15.8126 8.125 14.7606 8.125C13.7086 8.125 12.8558 8.96447 12.8558 10ZM12.8558 10H5.23679M12.8558 15.625C12.8558 16.6605 13.7086 17.5 14.7606 17.5C15.8126 17.5 16.6654 16.6605 16.6654 15.625C16.6654 14.5895 15.8126 13.75 14.7606 13.75C13.7086 13.75 12.8558 14.5895 12.8558 15.625ZM12.8558 15.625H7.14156C6.08958 15.625 5.23679 14.7855 5.23679 13.75V10" stroke="currentColor" stroke-linecap="round"/>
</svg>
