<svg width="28" height="28" viewBox="0 0 28 28" fill="none" xmlns="http://www.w3.org/2000/svg">
<path d="M10.2197 9.21973C10.5126 8.92683 10.9874 8.92683 11.2803 9.21973C11.5732 9.51262 11.5732 9.98738 11.2803 10.2803L8.56055 13H20.75C21.1642 13 21.5 13.3358 21.5 13.75C21.5 14.1642 21.1642 14.5 20.75 14.5H8.56055L11.2803 17.2197C11.5732 17.5126 11.5732 17.9874 11.2803 18.2803C10.9874 18.5732 10.5126 18.5732 10.2197 18.2803L6.21973 14.2803C6.171 14.2315 6.1331 14.1763 6.10059 14.1191C6.08512 14.092 6.06868 14.0653 6.05664 14.0361C6.03604 13.9861 6.02106 13.9344 6.01172 13.8818C6.00413 13.839 6 13.795 6 13.75C6 13.7047 6.00402 13.6603 6.01172 13.6172C6.02082 13.5664 6.03505 13.5162 6.05469 13.4678L6.05859 13.458C6.07018 13.4306 6.08596 13.4055 6.10059 13.3799C6.13303 13.323 6.17121 13.2682 6.21973 13.2197L10.2197 9.21973Z" fill="currentColor"/>
</svg>
