<svg width="16" height="16" viewBox="0 0 16 16" fill="none" xmlns="http://www.w3.org/2000/svg">
<path d="M8.00024 1.33325C11.682 1.33343 14.6663 4.31845 14.6663 8.00024C14.6661 11.6819 11.6819 14.6661 8.00024 14.6663C4.31845 14.6663 1.33343 11.682 1.33325 8.00024C1.33325 4.31835 4.31835 1.33325 8.00024 1.33325ZM10.3538 5.64673C10.1585 5.45147 9.84199 5.45147 9.64673 5.64673L8.00024 7.29321L6.35376 5.64673C6.1585 5.45147 5.84199 5.45147 5.64673 5.64673C5.45147 5.84199 5.45147 6.1585 5.64673 6.35376L7.29321 8.00024L5.64673 9.64673C5.45147 9.84199 5.45147 10.1585 5.64673 10.3538C5.84201 10.5487 6.15859 10.5489 6.35376 10.3538L8.00024 8.70728L9.64673 10.3538C9.84201 10.5487 10.1586 10.5489 10.3538 10.3538C10.5489 10.1586 10.5487 9.84201 10.3538 9.64673L8.70728 8.00024L10.3538 6.35376C10.5489 6.15859 10.5487 5.84201 10.3538 5.64673Z" fill="#CED4DA"/>
</svg>
