<svg width="20" height="20" viewBox="0 0 20 20" fill="none" xmlns="http://www.w3.org/2000/svg">
<path d="M10.8334 6.32552C11.0574 6.37171 11.2658 6.43899 11.4584 6.52734C11.8646 6.71262 12.1808 6.9711 12.4065 7.30127C12.632 7.63131 12.7484 8.01346 12.7556 8.44792H11.2769C11.2484 8.16063 11.126 7.93725 10.9099 7.77816C10.6938 7.61912 10.4005 7.53975 10.0302 7.53971C9.77843 7.53971 9.56556 7.57507 9.39217 7.64632C9.2188 7.7152 9.08604 7.81173 8.99341 7.93522C8.90322 8.05863 8.85758 8.19853 8.8575 8.35514C8.85275 8.48578 8.88031 8.60037 8.9397 8.69775C9.00145 8.79509 9.08594 8.87962 9.19279 8.95085C9.2996 9.01965 9.42307 9.08011 9.56307 9.13232C9.70321 9.18221 9.85314 9.22528 10.0123 9.2609L10.6674 9.41715C10.9855 9.48838 11.2779 9.58331 11.5439 9.70199C11.8099 9.82075 12.0408 9.96723 12.2356 10.1406C12.4303 10.314 12.5812 10.5183 12.6881 10.7534C12.7973 10.9886 12.8533 11.2583 12.8557 11.5623C12.8533 12.0088 12.7387 12.3959 12.5131 12.7236C12.2898 13.049 11.9666 13.3024 11.5439 13.4829C11.3296 13.5736 11.0927 13.6402 10.8334 13.6847V14.5832H9.16675V13.6758C8.92163 13.6307 8.69399 13.5656 8.48397 13.4788C8.04929 13.2983 7.70893 13.0312 7.46427 12.6772C7.22213 12.321 7.0953 11.8804 7.08341 11.3556H8.57593C8.59256 11.6003 8.6632 11.8045 8.7867 11.9684C8.91258 12.1299 9.07986 12.2523 9.28882 12.3354C9.5002 12.4162 9.73896 12.4567 10.005 12.4567C10.2661 12.4567 10.493 12.4187 10.6853 12.3428C10.88 12.2668 11.0309 12.1607 11.1378 12.0254C11.2447 11.89 11.2981 11.734 11.2981 11.5583C11.298 11.3947 11.2496 11.2572 11.1524 11.1457C11.0574 11.034 10.917 10.9384 10.7317 10.86C10.5489 10.7817 10.3245 10.7109 10.0587 10.6468L9.26359 10.4466C8.64865 10.297 8.16309 10.0633 7.80688 9.74512C7.45059 9.42683 7.2731 8.99769 7.27547 8.4585C7.27316 8.01693 7.39129 7.6313 7.62866 7.30127C7.86857 6.9711 8.19775 6.71262 8.6158 6.52734C8.78954 6.45038 8.97332 6.39002 9.16675 6.34505V5.4165H10.8334V6.32552Z" fill="currentColor"/>
<path fill-rule="evenodd" clip-rule="evenodd" d="M10.0001 1.6665C14.6025 1.6665 18.3334 5.39746 18.3334 9.99984C18.3334 14.6022 14.6025 18.3332 10.0001 18.3332C5.39771 18.3332 1.66675 14.6022 1.66675 9.99984C1.66675 5.39746 5.39771 1.6665 10.0001 1.6665ZM10.0001 3.33317C6.31818 3.33317 3.33341 6.31794 3.33341 9.99984C3.33341 13.6817 6.31818 16.6665 10.0001 16.6665C13.682 16.6665 16.6667 13.6817 16.6667 9.99984C16.6667 6.31794 13.682 3.33317 10.0001 3.33317Z" fill="currentColor"/>
</svg>
