<svg width="24" height="24" viewBox="0 0 24 24" fill="none" xmlns="http://www.w3.org/2000/svg">
<path d="M11.9977 5.1377H6.33516C5.88516 5.1377 5.47266 5.5127 5.47266 6.0002C5.47266 6.4877 5.84766 6.8627 6.33516 6.8627H11.9977C12.4477 6.8627 12.8602 6.4877 12.8602 6.0002C12.8602 5.5127 12.4477 5.1377 11.9977 5.1377Z" fill="currentColor"/>
<path d="M11.9977 9.9375H6.33516C5.88516 9.9375 5.47266 10.3125 5.47266 10.8C5.47266 11.2875 5.84766 11.6625 6.33516 11.6625H11.9977C12.4477 11.6625 12.8602 11.2875 12.8602 10.8C12.8602 10.3125 12.4477 9.9375 11.9977 9.9375Z" fill="currentColor"/>
<path d="M20.3242 3.2623H16.9492V3.1498C16.9492 1.8748 15.9367 0.862305 14.6617 0.862305H3.67422C2.43672 0.862305 1.38672 1.8748 1.38672 3.1498V20.8873C1.38672 22.1623 2.39922 23.1748 3.67422 23.1748H14.6242C15.8992 23.1748 16.9117 22.1623 16.9117 20.8873V20.6248H20.2867C21.5617 20.6248 22.5742 19.6123 22.5742 18.3373V5.5498C22.6117 4.2748 21.5617 3.2623 20.3242 3.2623ZM11.1742 21.4873H7.19922V17.0623C7.19922 16.7248 7.46172 16.4623 7.79922 16.4623H10.5742C10.9117 16.4623 11.1742 16.7248 11.1742 17.0623V21.4873ZM15.2617 20.8498C15.2617 21.1873 14.9992 21.4498 14.6617 21.4498H12.8617V17.0623C12.8617 15.7873 11.8492 14.7748 10.5742 14.7748H7.79922C6.52422 14.7748 5.51172 15.7873 5.51172 17.0623V21.4873H3.67422C3.33672 21.4873 3.07422 21.2248 3.07422 20.8873V3.1498C3.07422 2.8123 3.33672 2.5498 3.67422 2.5498H14.6242C14.9617 2.5498 15.2242 2.8123 15.2242 3.1498V20.8498H15.2617ZM20.9242 18.3373C20.9242 18.6748 20.6617 18.9373 20.3242 18.9373H16.9492V15.1873H18.6367C19.0867 15.1873 19.4992 14.8123 19.4992 14.3248C19.4992 13.8373 19.1242 13.4623 18.6367 13.4623H16.9492V10.3498H18.6367C19.0867 10.3498 19.4992 9.9748 19.4992 9.4873C19.4992 8.9998 19.1242 8.6248 18.6367 8.6248H16.9492V4.8748H20.3242C20.6617 4.8748 20.9242 5.1373 20.9242 5.4748V18.3373Z" fill="currentColor"/>
</svg>