<svg width="20" height="20" viewBox="0 0 20 20" fill="none" xmlns="http://www.w3.org/2000/svg">
<path d="M18.0888 13.0352C17.917 12.8457 17.6965 12.7458 17.4515 12.7458C17.251 12.7458 16.7593 12.8151 16.5203 13.4571C16.46 13.6185 16.4427 13.7045 16.3615 13.6957C16.2238 13.6821 15.6881 13.1098 15.513 12.2694L15.0784 10.2381C15.4218 9.68178 15.7748 9.2524 16.127 8.96119C16.3161 8.80674 16.5322 8.72496 16.7938 8.71077C17.4619 8.66524 17.7049 8.58119 17.869 8.46579C18.1399 8.27054 18.2888 7.98808 18.2888 7.67042C18.2888 7.39094 18.183 7.14175 17.9823 6.94983C17.7886 6.76438 17.5303 6.66649 17.2363 6.66649C16.8041 6.66649 16.3189 6.86647 15.7524 7.27764C15.4179 7.5207 15.0633 7.87408 14.6805 8.34776C14.556 7.88318 14.4496 7.66674 14.3704 7.53733C14.1259 7.13405 13.7288 7.13405 13.5982 7.13405L13.4558 7.13632L9.42028 7.23159L9.6474 6.26741C9.7924 5.63822 9.98275 5.14037 10.2123 4.78769C10.324 4.61608 10.495 4.41155 10.6743 4.41155C10.742 4.41155 10.876 4.42258 11.1264 4.47459C11.823 4.62519 12.0834 4.64252 12.219 4.64252C12.518 4.64252 12.7811 4.54253 12.9802 4.35341C13.1861 4.15746 13.2949 3.90109 13.2949 3.61215C13.2949 3.38625 13.2206 3.05949 12.8667 2.78526C12.6222 2.59596 12.2869 2.5 11.8701 2.5C11.2453 2.5 10.5832 2.69981 9.90167 3.09364C9.22538 3.48449 8.66921 4.02472 8.24894 4.69961C7.88032 5.29132 7.56092 6.12224 7.27618 7.23159H5.49772L5.10582 8.77802H6.88953L5.53414 14.2269C5.25344 15.3551 5.04785 15.6327 4.99164 15.691C4.83842 15.8493 4.52233 15.8826 4.28418 15.8826C3.98946 15.8826 3.67531 15.8614 3.34749 15.8194C3.1223 15.7919 2.95086 15.7784 2.82373 15.7784C2.49486 15.7784 2.22431 15.8638 2.01995 16.0319C1.79213 16.2191 1.66675 16.4897 1.66675 16.7939C1.66675 17.0315 1.7438 17.3733 2.11136 17.6511C2.36248 17.8402 2.70482 17.9361 3.1293 17.9361C4.19207 17.9361 5.18252 17.5139 6.0735 16.6814C6.93979 15.8717 7.5744 14.6829 7.96 13.145L9.03152 8.77854L12.6862 8.84053L13.0791 10.5286L12.2783 11.7103C12.134 11.922 11.9192 12.1833 11.6377 12.488C11.4907 12.6491 11.3929 12.7377 11.3364 12.7838C11.1059 12.5022 10.8445 12.3593 10.5603 12.3593C10.2932 12.3593 10.0507 12.4687 9.85946 12.6752C9.67805 12.8706 9.58226 13.1154 9.58226 13.3823C9.58226 13.7028 9.71937 13.988 9.97872 14.2069C10.2163 14.4076 10.51 14.5095 10.851 14.5095C11.2737 14.5095 11.7062 14.3482 12.137 14.0302C12.4965 13.7642 12.9595 13.2377 13.5509 12.4211C13.9309 13.5138 14.4699 14.2164 14.7266 14.5097C15.1316 14.9727 15.7859 15.2487 16.4765 15.2487C17.0628 15.2487 17.3948 15.0032 17.6876 14.7862L17.7135 14.7671C18.2259 14.3882 18.3334 13.9712 18.3334 13.6873C18.3331 13.4361 18.2485 13.2109 18.0888 13.0352Z" fill="currentColor"/>
</svg>
