<svg width="28" height="28" viewBox="0 0 28 28" fill="none" xmlns="http://www.w3.org/2000/svg">
<path fill-rule="evenodd" clip-rule="evenodd" d="M9.47873 5.65234C9.02257 5.65234 8.65234 6.02257 8.65234 6.47873V21.3537C8.65234 21.8099 9.02257 22.1801 9.47873 22.1801H19.3954C19.8516 22.1801 20.2218 21.8099 20.2218 21.3537V11.4371H16.9162C15.5469 11.4371 14.4371 10.3272 14.4371 8.9579V5.65234H9.47873ZM16.0898 6.82031L19.0533 9.78374H16.9162C16.4601 9.78374 16.0898 9.41352 16.0898 8.95735V6.82031ZM7 6.47917C7 5.10984 8.10984 4 9.47917 4H15.2639C15.4829 4 15.6936 4.08677 15.8481 4.24213L21.6329 10.0269C21.7882 10.1814 21.875 10.3921 21.875 10.6111V21.3542C21.875 22.7235 20.7652 23.8333 19.3958 23.8333H9.47917C8.10984 23.8333 7 22.7235 7 21.3542V6.47917ZM11.1318 15.5686C11.1318 15.1124 11.502 14.7422 11.9581 14.7422H14.4373C14.8935 14.7422 15.2637 15.1124 15.2637 15.5686C15.2637 16.0247 14.8935 16.395 14.4373 16.395H11.9581C11.502 16.395 11.1318 16.0247 11.1318 15.5686ZM11.1318 18.8733C11.1318 18.4171 11.502 18.0469 11.9581 18.0469H16.9165C17.3726 18.0469 17.7429 18.4171 17.7429 18.8733C17.7429 19.3294 17.3726 19.6997 16.9165 19.6997H11.9581C11.502 19.6997 11.1318 19.3294 11.1318 18.8733Z" fill="currentColor"/>
</svg>
