<svg width="13" height="16" viewBox="0 0 13 16" fill="none" xmlns="http://www.w3.org/2000/svg">
<path d="M10.05 4.51597V3.86597C10.05 1.86597 8.55 0.165969 6.65 0.0159689C5.6 -0.0840311 4.55 0.290969 3.775 0.990969C3 1.69097 2.55 2.69097 2.55 3.71597V4.51597C1.1 4.79097 0 6.06597 0 7.61597V12.141C0 13.791 1.35 15.116 2.975 15.116H9.575C11.225 15.116 12.575 13.766 12.575 12.116V7.56597C12.6 6.06597 11.5 4.81597 10.05 4.51597ZM4.525 1.81597C5.075 1.31597 5.8 1.06597 6.55 1.14097C7.875 1.26597 8.925 2.46597 8.925 3.86597V4.44097H3.675V3.69097C3.675 2.99097 3.975 2.31597 4.525 1.81597ZM11.475 12.141C11.475 13.166 10.625 14.016 9.6 14.016H3C1.975 14.016 1.15 13.191 1.15 12.166V7.61597C1.15 6.49097 2.05 5.59097 3.175 5.59097H9.425C10.55 5.59097 11.475 6.49097 11.475 7.56597V12.141Z" fill="currentColor"/>
<path d="M6.30156 8.1875C6.00156 8.1875 5.72656 8.4375 5.72656 8.7625V11.3875C5.72656 11.6875 5.97656 11.9625 6.30156 11.9625C6.60156 11.9625 6.87656 11.7125 6.87656 11.3875V8.7375C6.87656 8.4375 6.60156 8.1875 6.30156 8.1875Z" fill="currentColor"/>
</svg>
