<svg width="16" height="16" viewBox="0 0 16 16" fill="none" xmlns="http://www.w3.org/2000/svg">
<path d="M11.7998 2.13672C12.1141 2.0322 12.4538 2.20236 12.5586 2.5166C12.6631 2.83077 12.4928 3.17056 12.1787 3.27539L10.8223 3.72754V12.2705L12.1777 12.7227C12.4918 12.8275 12.6622 13.1673 12.5576 13.4814C12.4529 13.7956 12.113 13.9657 11.7988 13.8613L10.2246 13.3359L8.64941 13.8613C8.33515 13.966 7.99547 13.7956 7.89062 13.4814C7.78601 13.1671 7.95622 12.8274 8.27051 12.7227L9.62305 12.2715V3.72559L8.27148 3.27539C7.95722 3.17064 7.78702 2.83088 7.8916 2.5166C7.99636 2.20233 8.33611 2.03213 8.65039 2.13672L10.2246 2.66211L11.7998 2.13672Z" fill="currentColor"/>
<path d="M8.45898 6.24609H2.58008C2.26217 6.2463 2.00411 6.50436 2.00391 6.82227V9.1748C2.00391 9.49288 2.26205 9.75077 2.58008 9.75098H8.45898V10.9512H2.58008C1.59931 10.951 0.804688 10.1556 0.804688 9.1748V6.82227C0.804892 5.84162 1.59943 5.04708 2.58008 5.04688H8.45898V6.24609ZM13.166 5.04688C14.1468 5.04694 14.9422 5.84153 14.9424 6.82227V9.1748C14.9424 10.1557 14.1469 10.9511 13.166 10.9512H11.9873V9.75098H13.166C13.4842 9.75091 13.7422 9.49297 13.7422 9.1748V6.82227C13.742 6.50428 13.484 6.24616 13.166 6.24609H11.9873V5.04688H13.166Z" fill="currentColor"/>
</svg>
