<svg width="24" height="24" viewBox="0 0 24 24" fill="none" xmlns="http://www.w3.org/2000/svg">
<circle cx="17" cy="6.5" r="4" fill="#1A75E0"/>
<path d="M12.0005 4V2.5M12.0005 4C8.1345 4 5.00049 7.13401 5.00049 11V16.3176C5.00049 16.7641 4.87914 17.2022 4.64942 17.5851L3.95484 18.7428C3.75488 19.076 3.99494 19.5 4.38358 19.5H12.0005M12.0005 4C12.5933 4 13.169 4.0737 13.7187 4.21244M12.0005 19.5H19.6174C20.006 19.5 20.2461 19.076 20.0461 18.7428L19.3516 17.5851C19.1218 17.2022 19.0005 16.7641 19.0005 16.3176V11C19.0005 10.6621 18.9765 10.3297 18.9303 10.0046M12.0005 19.5V21M13.7187 4.21244C13.266 4.86069 13.0005 5.64934 13.0005 6.5C13.0005 8.70914 14.7914 10.5 17.0005 10.5C17.7003 10.5 18.358 10.3203 18.9303 10.0046M13.7187 4.21244C14.4417 3.1772 15.642 2.5 17.0005 2.5C19.2096 2.5 21.0005 4.29086 21.0005 6.5C21.0005 8.00938 20.1645 9.32349 18.9303 10.0046" stroke="white" stroke-width="1.5" stroke-linecap="round"/>
</svg>
