<svg width="28" height="28" viewBox="0 0 28 28" fill="none" xmlns="http://www.w3.org/2000/svg">
<path d="M9 8.25C8.58579 8.25 8.25 8.58579 8.25 9C8.25 9.41421 8.58579 9.75 9 9.75V9V8.25ZM14 9.75C14.4142 9.75 14.75 9.41421 14.75 9C14.75 8.58579 14.4142 8.25 14 8.25V9V9.75ZM17 11.25C16.5858 11.25 16.25 11.5858 16.25 12C16.25 12.4142 16.5858 12.75 17 12.75V12V11.25ZM20 12.75C20.4142 12.75 20.75 12.4142 20.75 12C20.75 11.5858 20.4142 11.25 20 11.25V12V12.75ZM9 11.25C8.58579 11.25 8.25 11.5858 8.25 12C8.25 12.4142 8.58579 12.75 9 12.75V12V11.25ZM14 12.75C14.4142 12.75 14.75 12.4142 14.75 12C14.75 11.5858 14.4142 11.25 14 11.25V12V12.75ZM17 14.25C16.5858 14.25 16.25 14.5858 16.25 15C16.25 15.4142 16.5858 15.75 17 15.75V15V14.25ZM20 15.75C20.4142 15.75 20.75 15.4142 20.75 15C20.75 14.5858 20.4142 14.25 20 14.25V15V15.75ZM7 5V5.75H16V5V4.25H7V5ZM17 6H16.25V22H17H17.75V6H17ZM16 23V22.25H7V23V23.75H16V23ZM6 22H6.75V6H6H5.25V22H6ZM7 23V22.25C6.86193 22.25 6.75 22.1381 6.75 22H6H5.25C5.25 22.9665 6.0335 23.75 7 23.75V23ZM17 22H16.25C16.25 22.1381 16.1381 22.25 16 22.25V23V23.75C16.9665 23.75 17.75 22.9665 17.75 22H17ZM16 5V5.75C16.1381 5.75 16.25 5.86193 16.25 6H17H17.75C17.75 5.0335 16.9665 4.25 16 4.25V5ZM7 5V4.25C6.0335 4.25 5.25 5.0335 5.25 6H6H6.75C6.75 5.86193 6.86193 5.75 7 5.75V5ZM17 7V7.75H22V7V6.25H17V7ZM23 8H22.25V20H23H23.75V8H23ZM22 21V20.25H17V21V21.75H22V21ZM23 20H22.25C22.25 20.1381 22.1381 20.25 22 20.25V21V21.75C22.9665 21.75 23.75 20.9665 23.75 20H23ZM22 7V7.75C22.1381 7.75 22.25 7.86193 22.25 8H23H23.75C23.75 7.0335 22.9665 6.25 22 6.25V7ZM10 16V16.75H13V16V15.25H10V16ZM14 17H13.25V23H14H14.75V17H14ZM9 23H9.75V17H9H8.25V23H9ZM13 16V16.75C13.1381 16.75 13.25 16.8619 13.25 17H14H14.75C14.75 16.0335 13.9665 15.25 13 15.25V16ZM10 16V15.25C9.0335 15.25 8.25 16.0335 8.25 17H9H9.75C9.75 16.8619 9.86193 16.75 10 16.75V16ZM9 9V9.75H14V9V8.25H9V9ZM17 12V12.75H20V12V11.25H17V12ZM9 12V12.75H14V12V11.25H9V12ZM17 15V15.75H20V15V14.25H17V15Z" fill="#637381"/>
</svg>
