<svg width="18" height="18" viewBox="0 0 18 18" fill="none" xmlns="http://www.w3.org/2000/svg">
<g clip-path="url(#clip0_9826_1970)">
<path d="M13.4183 9.27386C12.6001 8.29205 11.5637 7.61023 10.4183 7.25568C11.5637 6.65568 12.3274 5.45568 12.3274 4.06477C12.3274 2.07386 10.7183 0.4375 8.7001 0.4375C6.68192 0.4375 5.1001 2.10114 5.1001 4.09205C5.1001 5.45568 5.86373 6.65568 7.00919 7.28295C5.86373 7.6375 4.85464 8.31932 4.00919 9.30114C2.80919 10.7193 2.12737 12.683 2.1001 14.8375C2.1001 15.083 2.23646 15.3011 2.42737 15.383C3.16373 15.7648 5.83646 16.9648 8.7001 16.9648C11.8092 16.9648 14.291 15.7375 15.0001 15.3557C15.191 15.2466 15.3274 15.0284 15.3274 14.8102C15.3001 12.683 14.6183 10.7193 13.4183 9.27386ZM8.72737 1.71932C10.0365 1.71932 11.1274 2.78295 11.1274 4.11932C11.1274 5.45568 10.0637 6.51932 8.72737 6.51932C7.39101 6.51932 6.32737 5.45568 6.32737 4.11932C6.32737 2.78295 7.41828 1.71932 8.72737 1.71932ZM8.72737 15.7648C6.46373 15.7648 4.25464 14.892 3.35464 14.4557C3.46373 12.7375 4.00919 11.2102 4.96373 10.0648C5.94555 8.89205 7.28192 8.2375 8.72737 8.2375C10.1728 8.2375 11.5092 8.89205 12.491 10.0648C13.4456 11.183 14.0183 12.7375 14.1001 14.4557C13.2546 14.892 11.1819 15.7648 8.72737 15.7648Z" fill="currentColor"/>
</g>
<defs>
<clipPath id="clip0_9826_1970">
<rect width="17.4545" height="17.4545" fill="currentColor"/>
</clipPath>
</defs>
</svg>
