<svg width="20" height="20" viewBox="0 0 20 20" fill="none" xmlns="http://www.w3.org/2000/svg">
<path d="M16.5746 7.55217L16.2837 7.3901C16.2385 7.36493 16.2163 7.3523 16.1944 7.33921C15.9775 7.20908 15.7946 7.02927 15.6612 6.81415C15.6478 6.79251 15.6351 6.76981 15.6092 6.72495C15.5834 6.68014 15.5703 6.65744 15.5583 6.63496C15.4386 6.41116 15.3738 6.16175 15.37 5.90791C15.3696 5.88239 15.3697 5.85631 15.3705 5.80447L15.3762 5.46616C15.3853 4.92478 15.3899 4.65325 15.3139 4.40956C15.2464 4.19311 15.1335 3.99374 14.9827 3.82455C14.8123 3.63331 14.5764 3.49687 14.1041 3.22433L13.7118 2.99796C13.2409 2.72618 13.0053 2.59025 12.7553 2.53843C12.5341 2.49258 12.3058 2.4947 12.0854 2.54425C11.8366 2.60017 11.604 2.73965 11.1391 3.01844L11.1364 3.01971L10.8553 3.18825C10.8109 3.2149 10.7884 3.22833 10.7661 3.24074C10.545 3.36382 10.2982 3.43188 10.0454 3.44001C10.0199 3.44082 9.99403 3.44082 9.9422 3.44082C9.8907 3.44082 9.86367 3.44082 9.83824 3.44001C9.58488 3.43184 9.33758 3.36342 9.11616 3.23982C9.09385 3.22737 9.07177 3.21383 9.02723 3.18705L8.74436 3.01699C8.27622 2.73556 8.04181 2.59463 7.79166 2.53843C7.57036 2.4887 7.3413 2.48733 7.11929 2.53376C6.86861 2.5862 6.63298 2.72314 6.16174 2.99702L6.15965 2.99796L5.77224 3.22312L5.76795 3.22575C5.30095 3.49716 5.06689 3.6332 4.8979 3.82367C4.74795 3.99269 4.63586 4.19174 4.56877 4.40762C4.49294 4.65164 4.49698 4.92375 4.50612 5.46769L4.5118 5.80552C4.51266 5.85668 4.51415 5.8821 4.51377 5.90726C4.51001 6.16163 4.44441 6.41154 4.32436 6.63574C4.31249 6.65791 4.2997 6.68009 4.27415 6.72437C4.24859 6.76869 4.23621 6.79073 4.22295 6.81212C4.08891 7.02839 3.90522 7.20924 3.68691 7.3396C3.66531 7.35249 3.64255 7.36489 3.59784 7.38971L3.3106 7.54911C2.8327 7.81432 2.5938 7.94704 2.41997 8.13591C2.26619 8.30299 2.15002 8.50118 2.07911 8.71702C1.99895 8.96101 1.99902 9.23461 2.00026 9.78175L2.00128 10.2289C2.00251 10.7724 2.0042 11.044 2.08454 11.2863C2.15561 11.5007 2.27093 11.6977 2.42385 11.8638C2.5967 12.0515 2.83322 12.1834 3.3075 12.4476L3.59217 12.6062C3.64062 12.6332 3.665 12.6465 3.68836 12.6606C3.9047 12.7911 4.08695 12.9714 4.21985 13.1865C4.2342 13.2097 4.24799 13.2338 4.27555 13.282C4.30277 13.3296 4.31669 13.3535 4.32928 13.3773C4.4458 13.5982 4.50819 13.8437 4.51244 14.0935C4.5129 14.1205 4.51251 14.1478 4.51158 14.2026L4.50612 14.5268C4.49692 15.0726 4.49291 15.3459 4.56919 15.5905C4.63667 15.807 4.74946 16.0063 4.90023 16.1755C5.07065 16.3668 5.30692 16.5031 5.77922 16.7757L6.17143 17.002C6.64241 17.2738 6.87781 17.4096 7.12785 17.4614C7.34906 17.5072 7.57746 17.5055 7.79787 17.4559C8.04699 17.3999 8.2804 17.2599 8.74668 16.9804L9.02777 16.8118C9.07224 16.7852 9.09476 16.7718 9.11704 16.7594C9.33811 16.6363 9.58465 16.5679 9.83747 16.5598C9.86295 16.5589 9.88886 16.5589 9.94069 16.5589C9.99264 16.5589 10.0185 16.5589 10.0441 16.5598C10.2974 16.5679 10.5455 16.6366 10.7669 16.7602C10.7864 16.771 10.8059 16.7828 10.8402 16.8034L11.139 16.983C11.6072 17.2645 11.8411 17.405 12.0913 17.4612C12.3126 17.511 12.5418 17.513 12.7638 17.4665C13.0144 17.4141 13.2505 17.2769 13.7215 17.0032L14.1147 16.7746C14.582 16.503 14.8164 16.3669 14.9854 16.1763C15.1353 16.0073 15.2476 15.8083 15.3147 15.5925C15.3899 15.3502 15.3854 15.0802 15.3764 14.5441L15.3705 14.1945C15.3697 14.1433 15.3696 14.1179 15.3699 14.0927C15.3737 13.8383 15.4382 13.5883 15.5583 13.3641C15.5701 13.3419 15.583 13.3196 15.6085 13.2754C15.634 13.2311 15.6473 13.209 15.6605 13.1876C15.7946 12.9714 15.9784 12.7904 16.1968 12.66C16.2181 12.6473 16.2401 12.6351 16.2837 12.6108L16.2852 12.6102L16.5724 12.4508C17.0503 12.1855 17.2897 12.0527 17.4635 11.8638C17.6173 11.6967 17.7333 11.4988 17.8042 11.283C17.8839 11.0404 17.8833 10.7684 17.8821 10.2277L17.881 9.77087C17.8798 9.22739 17.8791 8.95587 17.7988 8.71353C17.7277 8.49913 17.6118 8.30211 17.4588 8.13603C17.2862 7.94849 17.0493 7.81655 16.576 7.55285L16.5746 7.55217Z" stroke="currentColor" stroke-width="1.5" stroke-linecap="round" stroke-linejoin="round"/>
<path d="M6.76372 10.0001C6.76372 11.7575 8.18643 13.1822 9.94143 13.1822C11.6964 13.1822 13.1191 11.7575 13.1191 10.0001C13.1191 8.24261 11.6964 6.81792 9.94143 6.81792C8.18643 6.81792 6.76372 8.24261 6.76372 10.0001Z" stroke="currentColor" stroke-width="1.5" stroke-linecap="round" stroke-linejoin="round"/>
</svg>
