<svg width="16" height="16" viewBox="0 0 16 16" fill="none" xmlns="http://www.w3.org/2000/svg">
<path d="M9.33301 3.33333L8.94273 2.55279C8.77334 2.214 8.42708 2 8.04831 2H4.33301C3.78072 2 3.33301 2.44772 3.33301 3V13.3333C3.33301 13.7015 3.63148 14 3.99967 14C4.36786 14 4.66634 13.7015 4.66634 13.3333V8.66667H7.99967L8.38995 9.44721C8.55934 9.786 8.9056 10 9.28438 10H12.333C12.8853 10 13.333 9.55228 13.333 9V4.33333C13.333 3.78105 12.8853 3.33333 12.333 3.33333H9.33301ZM11.9997 8.66667H9.33301L8.94273 7.88612C8.77334 7.54734 8.42708 7.33333 8.04831 7.33333H4.66634V3.33333H7.99967L8.38995 4.11388C8.55934 4.45266 8.9056 4.66667 9.28438 4.66667H11.9997V8.66667Z" fill="currentColor"/>
</svg>
