<svg width="16" height="16" viewBox="0 0 16 16" fill="none" xmlns="http://www.w3.org/2000/svg">
<path d="M6.00016 8.00065C7.28683 8.00065 8.3335 6.95398 8.3335 5.66732C8.3335 4.38065 7.28683 3.33398 6.00016 3.33398C4.7135 3.33398 3.66683 4.38065 3.66683 5.66732C3.66683 6.95398 4.7135 8.00065 6.00016 8.00065ZM6.00016 4.66732C6.5535 4.66732 7.00016 5.11398 7.00016 5.66732C7.00016 6.22065 6.5535 6.66732 6.00016 6.66732C5.44683 6.66732 5.00016 6.22065 5.00016 5.66732C5.00016 5.11398 5.44683 4.66732 6.00016 4.66732ZM6.0335 11.334H3.18016C3.84016 11.0007 4.98016 10.6673 6.00016 10.6673C6.0735 10.6673 6.1535 10.674 6.22683 10.674C6.4535 10.1873 6.84683 9.78732 7.32016 9.46732C6.8335 9.38065 6.3735 9.33398 6.00016 9.33398C4.44016 9.33398 1.3335 10.114 1.3335 11.6673V12.6673H6.00016V11.6673C6.00016 11.554 6.0135 11.4407 6.0335 11.334ZM11.0002 9.66732C9.7735 9.66732 7.3335 10.3407 7.3335 11.6673V12.6673H14.6668V11.6673C14.6668 10.3407 12.2268 9.66732 11.0002 9.66732ZM11.8068 8.45398C12.3135 8.16732 12.6668 7.62732 12.6668 7.00065C12.6668 6.08065 11.9202 5.33398 11.0002 5.33398C10.0802 5.33398 9.3335 6.08065 9.3335 7.00065C9.3335 7.62732 9.68683 8.16732 10.1935 8.45398C10.4335 8.58732 10.7068 8.66732 11.0002 8.66732C11.2935 8.66732 11.5668 8.58732 11.8068 8.45398Z" fill="currentColor"/>
</svg>
