<svg width="28" height="28" viewBox="0 0 28 28" xmlns="http://www.w3.org/2000/svg">
<path fill-rule="evenodd" clip-rule="evenodd" d="M9.47873 5.15234C9.02257 5.15234 8.65234 5.52257 8.65234 5.97873V20.8537C8.65234 21.3099 9.02257 21.6801 9.47873 21.6801H19.3954C19.8516 21.6801 20.2218 21.3099 20.2218 20.8537V10.9371H16.9162C15.5469 10.9371 14.4371 9.82723 14.4371 8.4579V5.15234H9.47873ZM16.0898 6.32031L19.0533 9.28374H16.9162C16.4601 9.28374 16.0898 8.91352 16.0898 8.45735V6.32031ZM7 5.97917C7 4.60984 8.10984 3.5 9.47917 3.5H15.2639C15.4829 3.5 15.6936 3.58677 15.8481 3.74213L21.6329 9.52685C21.7882 9.68139 21.875 9.89212 21.875 10.1111V20.8542C21.875 22.2235 20.7652 23.3333 19.3958 23.3333H9.47917C8.10984 23.3333 7 22.2235 7 20.8542V5.97917ZM11.1318 15.0686C11.1318 14.6124 11.502 14.2422 11.9581 14.2422H14.4373C14.8935 14.2422 15.2637 14.6124 15.2637 15.0686C15.2637 15.5247 14.8935 15.895 14.4373 15.895H11.9581C11.502 15.895 11.1318 15.5247 11.1318 15.0686ZM11.1318 18.3733C11.1318 17.9171 11.502 17.5469 11.9581 17.5469H16.9165C17.3726 17.5469 17.7429 17.9171 17.7429 18.3733C17.7429 18.8294 17.3726 19.1997 16.9165 19.1997H11.9581C11.502 19.1997 11.1318 18.8294 11.1318 18.3733Z"/>
</svg>
