<svg width="28" height="28" viewBox="0 0 28 28" fill="none" xmlns="http://www.w3.org/2000/svg">
<path d="M12.5 12.5C14.7091 12.5 16.5 10.7091 16.5 8.5C16.5 6.29086 14.7091 4.5 12.5 4.5C10.2909 4.5 8.5 6.29086 8.5 8.5C8.5 10.7091 10.2909 12.5 12.5 12.5ZM12.5 12.5C8.36 12.5 5 16.53 5 21.5C5 21.5 7.18 22.5 12.5 22.5C14.7645 22.5 16.46 22.3188 17.6607 22.1107M12.5 12.5C14.6079 12.5 16.5136 13.5447 17.8765 15.2263" stroke="currentColor" stroke-width="1.5" stroke-linejoin="round"/>
<path d="M22.4885 19.49L23.6885 20.18C23.9685 20.34 24.0685 20.71 23.9085 20.99L23.3185 22.02C23.1585 22.3 22.7885 22.4 22.5085 22.24L21.3085 21.55C20.9785 21.83 20.5985 22.05 20.1785 22.2V23.59C20.1785 23.92 19.9085 24.18 19.5885 24.18H18.3985C18.0685 24.18 17.8085 23.91 17.8085 23.59V22.2C17.3885 22.06 17.0085 21.83 16.6785 21.55L15.4785 22.24C15.1985 22.4 14.8285 22.31 14.6685 22.02L14.0785 20.99C13.9185 20.71 14.0085 20.34 14.2985 20.18L15.4985 19.49C15.4585 19.28 15.4385 19.06 15.4385 18.84C15.4385 18.62 15.4585 18.39 15.4985 18.19L14.2985 17.5C14.0185 17.34 13.9185 16.97 14.0785 16.69L14.6685 15.66C14.8285 15.38 15.1985 15.28 15.4785 15.44L16.6785 16.13C17.0085 15.85 17.3885 15.63 17.8085 15.48V14.09C17.8085 13.76 18.0785 13.5 18.3985 13.5H19.5885C19.9185 13.5 20.1785 13.77 20.1785 14.09V15.48C20.5985 15.62 20.9785 15.85 21.3085 16.13L22.5085 15.44C22.7885 15.28 23.1585 15.37 23.3185 15.66L23.9085 16.69C24.0685 16.97 23.9785 17.34 23.6885 17.5L22.4885 18.19C22.5285 18.4 22.5485 18.62 22.5485 18.84C22.5485 19.06 22.5285 19.29 22.4885 19.49Z" stroke="currentColor" stroke-width="1.5" stroke-linejoin="round"/>
<path d="M18.9885 19.95C19.6016 19.95 20.0985 19.453 20.0985 18.84C20.0985 18.227 19.6016 17.73 18.9885 17.73C18.3755 17.73 17.8785 18.227 17.8785 18.84C17.8785 19.453 18.3755 19.95 18.9885 19.95Z" stroke="currentColor" stroke-width="1.5" stroke-linejoin="round"/>
</svg>
